<?xml version="1.0" encoding="UTF-8"?>
<svg width="264px" height="46px" viewBox="0 0 264 46" version="1.1" xmlns="http://www.w3.org/2000/svg" xmlns:xlink="http://www.w3.org/1999/xlink">
    <!-- Generator: Sketch 46.2 (44496) - http://www.bohemiancoding.com/sketch -->
    <title>hatch-logo</title>
    <desc>Created with Sketch.</desc>
    <defs></defs>
    <g id="Page-1" stroke="none" stroke-width="1" fill="none" fill-rule="evenodd">
        <g id="hatch-logo" fill="#63BAB0">
            <polyline id="Fill-1" points="39.147 0.466 39.147 19.964 5.981 19.964 5.981 0.466 0 0.466 0 45.444 5.981 45.444 5.981 25.945 39.147 25.945 39.147 45.444 45.128 45.444 45.128 0.466 39.147 0.466"></polyline>
            <polyline id="Fill-2" points="151.166 0.391 112.168 0.391 112.168 6.372 128.676 6.372 128.676 45.519 134.657 45.519 134.657 6.372 151.166 6.372 151.166 0.391"></polyline>
            <polyline id="Fill-3" points="257.353 0.466 257.353 19.964 224.186 19.964 224.186 0.466 218.205 0.466 218.205 45.444 224.186 45.444 224.186 25.945 257.353 25.945 257.353 45.444 263.333 45.444 263.333 0.466 257.353 0.466"></polyline>
            <path d="M82.732,0.316 C70.29,0.316 60.168,10.438 60.168,22.88 C60.168,35.322 70.29,45.444 82.732,45.444 C86.564,45.444 90.171,44.478 93.335,42.787 L93.335,35.617 C90.458,38.016 86.762,39.463 82.732,39.463 C73.588,39.463 66.149,32.024 66.149,22.88 C66.149,13.736 73.588,6.297 82.732,6.297 C91.877,6.297 99.316,13.736 99.316,22.88 L99.316,38.129 L99.316,38.128 L99.316,45.519 L105.297,45.519 L105.297,22.88 C105.297,10.438 95.174,0.316 82.732,0.316" id="Fill-4"></path>
            <path d="M196.447,27.774 C194.354,34.536 188.043,39.463 180.601,39.463 C171.457,39.463 164.018,32.024 164.018,22.88 C164.018,13.736 171.457,6.297 180.601,6.297 C188.043,6.297 194.354,11.224 196.447,17.987 L202.625,17.987 C200.382,7.891 191.362,0.316 180.601,0.316 C168.159,0.316 158.037,10.438 158.037,22.88 C158.037,35.322 168.159,45.444 180.601,45.444 C191.362,45.444 200.382,37.87 202.625,27.774 L196.447,27.774" id="Fill-5"></path>
        </g>
    </g>
</svg>