<?xml version="1.0" encoding="UTF-8"?>
<svg width="651px" height="609px" viewBox="0 0 651 609" version="1.1" xmlns="http://www.w3.org/2000/svg" xmlns:xlink="http://www.w3.org/1999/xlink">
    <!-- Generator: Sketch 50.2 (55047) - http://www.bohemiancoding.com/sketch -->
    <title>web</title>
    <desc>Created with Sketch.</desc>
    <defs>
        <linearGradient x1="55.1710665%" y1="60.421158%" x2="-197.353716%" y2="180.474697%" id="linearGradient-1">
            <stop stop-color="#63BAB0" offset="0%"></stop>
            <stop stop-color="#FFFFFF" stop-opacity="0" offset="100%"></stop>
        </linearGradient>
        <linearGradient x1="19.6706279%" y1="97.0238149%" x2="182.770612%" y2="-45.1091675%" id="linearGradient-2">
            <stop stop-color="#A6DED8" offset="0%"></stop>
            <stop stop-color="#FFFFFF" stop-opacity="0" offset="100%"></stop>
        </linearGradient>
    </defs>
    <g id="Page-1" stroke="none" stroke-width="1" fill="none" fill-rule="evenodd">
        <g id="Desktop-Copy" transform="translate(-186.000000, -194.000000)">
            <g id="web" transform="translate(186.000000, 190.000000)">
                <g transform="translate(51.000000, 35.000000)">
                    <polygon id="Oval-Copy-2" fill-opacity="0.5" fill="url(#linearGradient-1)" points="355.337827 354.150188 389.055248 272.752689 355.337827 190.573433 272.786644 156.869436 191.160146 190.573433 156.869436 272.752689 191.160146 354.150188 272.786644 388.726752"></polygon>
                    <polygon id="Oval-Copy-2" fill-opacity="0.5" fill="url(#linearGradient-2)" points="396.238135 395.20211 447.042477 272.179401 395.821593 149.267243 272.537706 98.6498516 150.476005 149.267243 98.6498516 272.179401 149.618708 397.629705 272.537706 446.803212"></polygon>
                    <polygon id="Oval-Copy-3" fill-opacity="0.1" fill="#63BAB0" points="437.658036 436.275747 505.11262 272.140313 436.48461 108.122537 272.632662 40.4302671 109.363478 108.122537 40.4302671 272.140313 108.135961 436.275747 272.632662 504.968903"></polygon>
                    <g id="Group-2" stroke="#63BAB0" stroke-width="2">
                        <path d="M272.904303,157.143223 L191.048858,191.048858 L157.143223,272.904303 L191.048858,354.759747 L272.904303,388.665382 L354.759747,354.759747 L388.665382,272.904303 L354.759747,191.048858 L272.904303,157.143223 Z" id="Polygon"></path>
                        <path d="M272.904303,98.9236385 L149.881395,149.881395 L98.9236385,272.904303 L149.881395,395.92721 L272.904303,446.884967 L395.92721,395.92721 L446.884967,272.904303 L395.92721,149.881395 L272.904303,98.9236385 Z" id="Polygon-Copy"></path>
                        <path d="M272.904303,40.7040539 L108.713932,108.713932 L40.7040539,272.904303 L108.713932,437.094673 L272.904303,505.104551 L437.094673,437.094673 L505.104551,272.904303 L437.094673,108.713932 L272.904303,40.7040539 Z" id="Polygon-Copy-2"></path>
                        <path d="M272.5,388.327127 L272.5,544.747114" id="Path-2" stroke-linecap="round" stroke-linejoin="round"></path>
                        <path d="M272.5,0.196563357 L272.5,156.61655" id="Path-2-Copy" stroke-linecap="round" stroke-linejoin="round"></path>
                        <g id="Group" transform="translate(272.904303, 272.500000) rotate(45.000000) translate(-272.904303, -272.500000) translate(272.500000, 0.000000)" stroke-linecap="round" stroke-linejoin="round">
                            <path d="M0,388.327127 L0,544.747114" id="Path-2"></path>
                            <path d="M0,0.196563357 L0,156.61655" id="Path-2-Copy"></path>
                        </g>
                        <g id="Group-Copy" transform="translate(272.904303, 272.500000) rotate(-270.000000) translate(-272.904303, -272.500000) translate(272.500000, 0.000000)" stroke-linecap="round" stroke-linejoin="round">
                            <path d="M0,388.327127 L0,544.747114" id="Path-2"></path>
                            <path d="M0,0.196563357 L0,156.61655" id="Path-2-Copy"></path>
                        </g>
                        <g id="Group-Copy" transform="translate(272.904303, 272.500000) rotate(-225.000000) translate(-272.904303, -272.500000) translate(272.500000, -0.000000)" stroke-linecap="round" stroke-linejoin="round">
                            <path d="M0,388.327127 L0,544.747114" id="Path-2"></path>
                            <path d="M0,0.196563357 L0,156.61655" id="Path-2-Copy"></path>
                        </g>
                    </g>
                    <polyline id="Fill-1-Copy" fill="#FFFFFF" points="299.421706 236.921365 299.421706 268.453739 245.785297 268.453739 245.785297 236.921365 236.11276 236.921365 236.11276 309.660267 245.785297 309.660267 245.785297 278.126276 299.421706 278.126276 299.421706 309.660267 309.094243 309.660267 309.094243 236.921365 299.421706 236.921365"></polyline>
                </g>
                <g id="Group-6">
                    <rect id="Rectangle-4" fill="#63BAB0" x="511" y="109" width="10" height="10" rx="5"></rect>
                    <text id="Marketing-Cloud" font-family="HelveticaNeue-Bold, Helvetica Neue" font-size="14" font-weight="bold" fill="#04575B">
                        <tspan x="466" y="98">Marketing Cloud</tspan>
                    </text>
                    <rect id="Rectangle-4" fill="#63BAB0" x="592" y="303" width="10" height="10" rx="5"></rect>
                    <text id="CRM" font-family="HelveticaNeue-Bold, Helvetica Neue" font-size="14" font-weight="bold" fill="#04575B">
                        <tspan x="618" y="312">CRM</tspan>
                    </text>
                    <rect id="Rectangle-4" fill="#63BAB0" x="126" y="495" width="10" height="10" rx="5"></rect>
                    <text id="Data-Warehouse" font-family="HelveticaNeue-Bold, Helvetica Neue" font-size="14" font-weight="bold" fill="#04575B">
                        <tspan x="82" y="527">Data Warehouse</tspan>
                    </text>
                    <rect id="Rectangle-4" fill="#63BAB0" x="511" y="494" width="10" height="10" rx="5"></rect>
                    <text id="Data-Management" font-family="HelveticaNeue-Bold, Helvetica Neue" font-size="14" font-weight="bold" fill="#04575B">
                        <tspan x="461" y="527">Data Management</tspan>
                    </text>
                    <rect id="Rectangle-4" fill="#63BAB0" x="46" y="303" width="10" height="10" rx="5"></rect>
                    <text id="POS" font-family="HelveticaNeue-Bold, Helvetica Neue" font-size="14" font-weight="bold" fill="#04575B">
                        <tspan x="0" y="312">POS</tspan>
                    </text>
                    <rect id="Rectangle-4" fill="#63BAB0" x="319" y="25" width="10" height="10" rx="5"></rect>
                    <text id="Retailers" font-family="HelveticaNeue-Bold, Helvetica Neue" font-size="14" font-weight="bold" fill="#04575B">
                        <tspan x="294" y="14">Retailers</tspan>
                    </text>
                    <rect id="Rectangle-4" fill="#63BAB0" x="127" y="109" width="10" height="10" rx="5"></rect>
                    <text id="Agencies" font-family="HelveticaNeue-Bold, Helvetica Neue" font-size="14" font-weight="bold" fill="#04575B">
                        <tspan x="95" y="98">Agencies</tspan>
                    </text>
                    <rect id="Rectangle-4" fill="#63BAB0" x="319" y="580" width="10" height="10" rx="5"></rect>
                    <text id="CPG’s" font-family="HelveticaNeue-Bold, Helvetica Neue" font-size="14" font-weight="bold" fill="#04575B">
                        <tspan x="304" y="612">CPG’s</tspan>
                    </text>
                </g>
            </g>
        </g>
    </g>
</svg>